<svg xmlns="http://www.w3.org/2000/svg" width="57.281" height="57.281" viewBox="0 0 57.281 57.281"><defs><style>.a{fill:#fff;}</style></defs><path class="a" d="M28.64,0A28.644,28.644,0,0,0,3.8,42.9L.108,54.357a2.237,2.237,0,0,0,2.816,2.816l11.46-3.69A28.641,28.641,0,1,0,28.641,0Zm0,52.806a24.1,24.1,0,0,1-12.791-3.661,2.239,2.239,0,0,0-1.872-.232L5.7,51.576,8.369,43.3a2.239,2.239,0,0,0-.233-1.872,24.167,24.167,0,1,1,20.5,11.374Zm2.8-24.165a2.8,2.8,0,1,1-2.8-2.8A2.8,2.8,0,0,1,31.437,28.64Zm11.188,0a2.8,2.8,0,1,1-2.8-2.8A2.8,2.8,0,0,1,42.625,28.64Zm-22.375,0a2.8,2.8,0,1,1-2.8-2.8A2.8,2.8,0,0,1,20.25,28.64Zm0,0"/></svg>