<svg xmlns="http://www.w3.org/2000/svg" width="184.074" height="184.075" viewBox="0 0 184.074 184.075"><defs><style>.a{fill:#fff;}</style></defs><path class="a" d="M157.85,94.26a9.28,9.28,0,0,0-8.13-1.473L127.785,99.26v-27.3h9.2a3.028,3.028,0,0,0,2.822-1.9,3.068,3.068,0,0,0-.644-3.344L117.691,45.234a3.092,3.092,0,0,0-4.356,0L91.859,66.71a3.068,3.068,0,0,0-.644,3.344,3.028,3.028,0,0,0,2.822,1.9h9.2V105.7H82.564L66,96.5H90.97a9.231,9.231,0,0,0,9.2-9.2V85.762a9.25,9.25,0,0,0-6.6-8.836L75.63,71.649V56.616h9.2a3.028,3.028,0,0,0,2.822-1.9,3.068,3.068,0,0,0-.644-3.344L65.537,29.895a3.092,3.092,0,0,0-4.356,0L39.7,51.37a3.068,3.068,0,0,0-.644,3.344,3.028,3.028,0,0,0,2.822,1.9h9.2V64.44L45.81,62.875a2.648,2.648,0,0,0-.859-.123H26.543V56.616a3.068,3.068,0,0,0-3.068-3.068H5.068A3.068,3.068,0,0,0,2,56.616v67.494a3.068,3.068,0,0,0,3.068,3.068H23.475a3.068,3.068,0,0,0,3.068-3.068v-4.939l32.765,10.922a3.635,3.635,0,0,0,.982.153h46.019a2.819,2.819,0,0,0,1.012-.184L155.4,113.1a9.2,9.2,0,0,0,6.136-8.682v-2.792A9.155,9.155,0,0,0,157.85,94.26ZM20.408,121.043H8.136V59.684H20.408ZM101.431,65.82l14.082-14.082L129.595,65.82h-4.878a3.068,3.068,0,0,0-3.068,3.068v32.182l-12.272,3.589V68.888a3.068,3.068,0,0,0-3.068-3.068ZM49.277,50.481,63.358,36.4,77.44,50.481H72.562a3.068,3.068,0,0,0-3.068,3.068V69.839l-12.272-3.62V53.548a3.068,3.068,0,0,0-3.068-3.068ZM155.4,104.415a3.068,3.068,0,0,1-2.055,2.915l-47.553,16.782H60.781L26.543,112.7V68.888H44.521L91.829,82.816a3.092,3.092,0,0,1,2.209,2.945V87.3a3.068,3.068,0,0,1-3.068,3.068H54.155a3.068,3.068,0,0,0-1.5,5.737l27.611,15.34a2.906,2.906,0,0,0,1.5.4h24.543a2.648,2.648,0,0,0,.859-.123l44.3-13.039a3.068,3.068,0,0,1,3.927,2.945Z" transform="translate(-2 53.829)"/><path class="a" d="M65.019,2a46.019,46.019,0,1,0,46.019,46.019A46.019,46.019,0,0,0,65.019,2Zm39.73,42.951H98.612a34.02,34.02,0,0,0-2.976-11.045l5.307-3.1a39.951,39.951,0,0,1,3.8,14.143ZM87.537,15.131A40.631,40.631,0,0,1,97.907,25.5l-5.338,3.068a34.993,34.993,0,0,0-8.1-8.1ZM68.087,8.289a39.95,39.95,0,0,1,14.143,3.8l-3.1,5.307a34.02,34.02,0,0,0-11.045-2.976Zm-6.136,0v6.136A34.02,34.02,0,0,0,50.906,17.4l-3.1-5.307a39.95,39.95,0,0,1,14.143-3.8ZM42.5,15.131l3.068,5.338a34.993,34.993,0,0,0-8.1,8.1L32.131,25.5A40.632,40.632,0,0,1,42.5,15.131ZM29.093,30.808l5.307,3.1a34.02,34.02,0,0,0-2.976,11.044H25.289a39.951,39.951,0,0,1,3.8-14.143Zm-3.8,20.279h6.136A34.02,34.02,0,0,0,34.4,62.131l-5.307,3.1a39.95,39.95,0,0,1-3.8-14.143ZM42.5,80.907a40.632,40.632,0,0,1-10.37-10.37l5.338-3.068a34.993,34.993,0,0,0,8.1,8.1Zm19.451,6.841a39.95,39.95,0,0,1-14.143-3.8l3.1-5.307a34.02,34.02,0,0,0,11.044,2.976ZM37.407,48.019A27.611,27.611,0,1,1,65.019,75.63,27.611,27.611,0,0,1,37.407,48.019Zm30.679,39.73V81.612a34.02,34.02,0,0,0,11.045-2.976l3.1,5.308A39.95,39.95,0,0,1,68.087,87.748Zm19.451-6.841-3.068-5.338a34.993,34.993,0,0,0,8.1-8.1l5.338,3.068A40.632,40.632,0,0,1,87.537,80.907ZM100.944,65.23l-5.307-3.1a34.02,34.02,0,0,0,2.976-11.045h6.136a39.95,39.95,0,0,1-3.8,14.143Z" transform="translate(33.155 -2)"/><path class="a" d="M37.136,52.951h6.136V46.815a6.136,6.136,0,0,0,6.136-6.136V34.543a6.136,6.136,0,0,0-6.136-6.136H37.136V22.272H49.407V16.136H43.272V10H37.136v6.136A6.136,6.136,0,0,0,31,22.272v6.136a6.136,6.136,0,0,0,6.136,6.136h6.136v6.136H31v6.136h6.136Z" transform="translate(57.97 14.543)"/><path class="a" d="M94.187,49.374,72.712,27.9a3.068,3.068,0,0,0-4.338,0L46.9,49.374a3.068,3.068,0,0,0,2.169,5.237h9.2V85.29a3.068,3.068,0,0,0,3.068,3.068H79.747a3.068,3.068,0,0,0,3.068-3.068V54.611h9.2a3.068,3.068,0,0,0,2.169-5.237Zm-14.441-.9a3.068,3.068,0,0,0-3.068,3.068V82.222H64.407V51.543a3.068,3.068,0,0,0-3.068-3.068H56.473L70.543,34.406,84.612,48.475Z" transform="translate(88.989 49.698)"/><path class="a" d="M5.068,46.611h9.2V65.018a3.068,3.068,0,0,0,3.068,3.068H35.747a3.068,3.068,0,0,0,3.068-3.068V46.611h9.2a3.068,3.068,0,0,0,2.169-5.237L28.712,19.9a3.068,3.068,0,0,0-4.338,0L2.9,41.374a3.068,3.068,0,0,0,2.169,5.237ZM26.543,26.406,40.612,40.475H35.747a3.068,3.068,0,0,0-3.068,3.068V61.95H20.407V43.543a3.068,3.068,0,0,0-3.068-3.068H12.473Z" transform="translate(-2 33.155)"/></svg>